<?xml version="1.0" encoding="utf-8"?>
<!-- Generator: Adobe Illustrator 19.1.0, SVG Export Plug-In . SVG Version: 6.00 Build 0)  -->
<svg version="1.1" id="Layer_1" xmlns="http://www.w3.org/2000/svg" xmlns:xlink="http://www.w3.org/1999/xlink" x="0px" y="0px"
	 viewBox="0 0 286.7 81.3" style="enable-background:new 0 0 286.7 81.3;" xml:space="preserve">
<style type="text/css">
	.st0{fill:#428BCA;}
	.st1{fill:#FFFFFF;}
	.st2{fill:none;}
</style>
<g>
	<g>
		<path class="st0" d="M233.7,26.1c3.7,0,6.1-2.5,6.1-5.7c-0.1-3.3-2.4-5.8-6.1-5.8c-3.7,0-6.1,2.5-6,5.8
			C227.7,23.6,230.1,26.1,233.7,26.1z M228.1,56.8h-3.3c0-4.2,0-16.1-0.2-17.8c-0.6-5.3-5.2-8.4-9.5-8.4c-4.2,0-12,0-12,0L199,39
			h12.9c1.2,1,1.5,2.2,1.5,3.3v0.5c-12.9-0.1-21.5,4.5-21.5,14c0,5.8,4.4,11.2,11.8,11.2c4.3,0,8.1-1.6,10.5-4.5h0.2l0.7,3.7h24.4
			V30.6h-11.4V56.8z M213.8,53.9c0,0.7-0.1,1.3-0.2,1.9c-0.7,2.3-3.1,4.2-5.9,4.2c-2.5,0-4.5-1.4-4.5-4.3c0-4.4,4.6-5.8,10.6-5.8
			V53.9z"/>
		<path class="st1" d="M76.4,66.3c-2,0.9-5.8,1.7-10.2,1.7c-11.8,0-19.4-7.3-19.4-18.8c0-10.7,7.3-19.5,20.9-19.5
			c3,0,6.3,0.5,8.7,1.4l-1.8,8.5c-1.3-0.6-3.4-1.1-6.4-1.1c-6,0-9.9,4.3-9.8,10.2c0,6.7,4.5,10.2,10,10.2c2.7,0,4.8-0.4,6.5-1.2
			L76.4,66.3z"/>
		<path class="st1" d="M79.4,14.1h11.4v53.1H79.4V14.1z"/>
		<path class="st1" d="M126.4,58.3c0,3.5,0.1,6.9,0.5,8.9h-10.2l-0.7-3.7h-0.2c-2.4,2.9-6.1,4.5-10.5,4.5c-7.4,0-11.8-5.4-11.8-11.2
			c0-9.5,8.5-14.1,21.5-14v-0.5c0-1.9-1-4.7-6.7-4.7c-3.7,0-7.7,1.3-10.1,2.8L96.1,33c2.5-1.4,7.6-3.2,14.2-3.2
			c12.2,0,16.1,7.2,16.1,15.8V58.3z M115.3,49.9c-6-0.1-10.6,1.3-10.6,5.8c0,2.9,1.9,4.3,4.5,4.3c2.8,0,5.2-1.9,5.9-4.2
			c0.1-0.6,0.2-1.3,0.2-1.9V49.9z"/>
		<path class="st1" d="M131.3,42.7c0-5.4-0.1-8.9-0.3-12h9.8l0.4,6.7h0.3c1.9-5.3,6.4-7.6,9.9-7.6c1,0,1.6,0,2.4,0.1v10.8
			c-0.8-0.2-1.8-0.4-3.1-0.4c-4.2,0-7,2.2-7.8,5.8c-0.1,0.7-0.2,1.6-0.2,2.5v18.6h-11.4V42.7z"/>
		<path class="st1" d="M169.8,20.5c0,3.1-2.4,5.7-6.1,5.7c-3.6,0-6-2.5-5.9-5.7c-0.1-3.3,2.3-5.8,6-5.8
			C167.5,14.7,169.8,17.2,169.8,20.5z M158.1,67.2V30.6h11.4v36.6H158.1z"/>
		<path class="st1" d="M178.2,67.2V39h-4.8v-8.4h4.8v-1.4c0-4.4,1.3-9.3,4.6-12.3c2.8-2.7,6.8-3.7,10.1-3.7c2.5,0,4.5,0.3,6.1,0.7
			l-0.4,8.8c-1-0.3-2.2-0.5-3.7-0.5c-3.7,0-5.3,2.9-5.3,6.5v1.9H201l-4.1,8.4h-7.3v28.2H178.2z"/>
		<path class="st2" d="M203.1,55.7c0,2.9,1.9,4.3,4.5,4.3c2.8,0,5.2-1.9,5.9-4.2c0.1-0.6,0.2-1.3,0.2-1.9v-4
			C207.8,49.9,203.1,51.3,203.1,55.7z"/>
	</g>
</g>
</svg>
