<?xml version="1.0" encoding="utf-8"?>
<!-- Generator: Adobe Illustrator 19.1.0, SVG Export Plug-In . SVG Version: 6.00 Build 0)  -->
<svg version="1.1" id="Layer_1" xmlns="http://www.w3.org/2000/svg" xmlns:xlink="http://www.w3.org/1999/xlink" x="0px" y="0px"
	 viewBox="-162 356.7 286.7 81.3" enable-background="new -162 356.7 286.7 81.3" xml:space="preserve">
<g>
	<g>
		<path fill="#428BCA" d="M103.727,377.794c5.011,0,8.261-3.386,8.261-7.719c-0.135-4.469-3.25-7.855-8.261-7.855
			c-5.011,0-8.261,3.386-8.126,7.855C95.602,374.408,98.852,377.794,103.727,377.794z M96.143,419.371h-4.469
			c0-5.688,0-21.804-0.271-24.106c-0.813-7.178-7.042-11.376-12.866-11.376c-5.688,0-16.251,0-16.251,0l-5.553,11.376h17.47
			c1.625,1.354,2.031,2.979,2.031,4.469v0.677c-17.47-0.135-29.117,6.094-29.117,18.96c0,7.855,5.959,15.168,15.981,15.168
			c5.823,0,10.97-2.167,14.22-6.094h0.271l0.948,5.011h33.045v-49.567H96.143L96.143,419.371L96.143,419.371z M76.777,415.443
			c0,0.948-0.135,1.761-0.271,2.573c-0.948,3.115-4.198,5.688-7.99,5.688c-3.386,0-6.094-1.896-6.094-5.823
			c0-5.959,6.23-7.855,14.355-7.855L76.777,415.443L76.777,415.443z"/>
		<path fill="#FFFFFF" d="M-109.302,432.237c-2.709,1.219-7.855,2.302-13.814,2.302c-15.981,0-26.273-9.886-26.273-25.461
			c0-14.491,9.886-26.409,28.305-26.409c4.063,0,8.532,0.677,11.782,1.896l-2.438,11.511c-1.761-0.813-4.605-1.49-8.667-1.49
			c-8.126,0-13.407,5.823-13.272,13.814c0,9.074,6.094,13.814,13.543,13.814c3.657,0,6.501-0.542,8.803-1.625L-109.302,432.237z"/>
		<path fill="#FFFFFF" d="M-105.239,361.543H-89.8v71.913h-15.439V361.543z"/>
		<path fill="#FFFFFF" d="M-41.587,421.402c0,4.74,0.135,9.345,0.677,12.053h-13.814l-0.948-5.011h-0.271
			c-3.25,3.927-8.261,6.094-14.22,6.094c-10.022,0-15.981-7.313-15.981-15.168c0-12.866,11.511-19.095,29.117-18.96v-0.677
			c0-2.573-1.354-6.365-9.074-6.365c-5.011,0-10.428,1.761-13.678,3.792l-2.844-10.022c3.386-1.896,10.293-4.334,19.231-4.334
			c16.522,0,21.804,9.751,21.804,21.398C-41.587,404.203-41.587,421.402-41.587,421.402z M-56.62,410.026
			c-8.126-0.135-14.355,1.761-14.355,7.855c0,3.927,2.573,5.823,6.094,5.823c3.792,0,7.042-2.573,7.99-5.688
			c0.135-0.813,0.271-1.761,0.271-2.573V410.026z"/>
		<path fill="#FFFFFF" d="M-34.951,400.275c0-7.313-0.135-12.053-0.406-16.251h13.272l0.542,9.074h0.406
			c2.573-7.178,8.667-10.293,13.407-10.293c1.354,0,2.167,0,3.25,0.135v14.626c-1.083-0.271-2.438-0.542-4.198-0.542
			c-5.688,0-9.48,2.979-10.563,7.855c-0.135,0.948-0.271,2.167-0.271,3.386v25.19h-15.439L-34.951,400.275L-34.951,400.275z"/>
		<path fill="#FFFFFF" d="M17.189,370.21c0,4.198-3.25,7.719-8.261,7.719c-4.875,0-8.126-3.386-7.99-7.719
			c-0.135-4.469,3.115-7.855,8.126-7.855S17.189,365.741,17.189,370.21z M1.343,433.455v-49.567h15.439v49.567H1.343z"/>
		<path fill="#FFFFFF" d="M28.565,433.455v-38.191h-6.501v-11.376h6.501v-1.896c0-5.959,1.761-12.595,6.23-16.658
			c3.792-3.657,9.209-5.011,13.678-5.011c3.386,0,6.094,0.406,8.261,0.948l-0.542,11.918c-1.354-0.406-2.979-0.677-5.011-0.677
			c-5.011,0-7.178,3.927-7.178,8.803v2.573h15.439l-5.553,11.376h-9.886v38.191H28.565z"/>
		<path fill="none" d="M62.286,417.881c0,3.927,2.573,5.823,6.094,5.823c3.792,0,7.042-2.573,7.99-5.688
			c0.135-0.813,0.271-1.761,0.271-2.573v-5.417C68.651,410.026,62.286,411.922,62.286,417.881z"/>
	</g>
</g>
</svg>
