<?xml version="1.0" encoding="utf-8"?>
<!-- Generator: Adobe Illustrator 19.1.0, SVG Export Plug-In . SVG Version: 6.00 Build 0)  -->
<svg version="1.1" id="Layer_1" xmlns="http://www.w3.org/2000/svg" xmlns:xlink="http://www.w3.org/1999/xlink" x="0px" y="0px"
	 viewBox="-162 356.7 286.7 81.3" style="enable-background:new -162 356.7 286.7 81.3;" xml:space="preserve">
<style type="text/css">
	.st0{fill:#428BCA;}
	.st1{fill:none;}
	.st2{font-family:'MyriadPro-Regular';}
	.st3{font-size:12px;}
</style>
<g>
	<g>
		<path class="st0" d="M103.8,377.7c5,0,8.3-3.4,8.3-7.7c-0.1-4.5-3.2-7.9-8.3-7.9s-8.3,3.4-8.1,7.9
			C95.7,374.3,98.9,377.7,103.8,377.7z M96.2,419.3h-4.5c0-5.7,0-21.8-0.3-24.1c-0.8-7.2-7-11.4-12.9-11.4c-5.7,0-16.3,0-16.3,0
			l-5.6,11.4h17.5c1.6,1.4,2,3,2,4.5v0.7c-17.5-0.1-29.1,6.1-29.1,19c0,7.9,6,15.2,16,15.2c5.8,0,11-2.2,14.2-6.1h0.3l0.9,5h33
			v-49.6H96.2V419.3L96.2,419.3z M76.8,415.4c0,0.9-0.1,1.8-0.3,2.6c-0.9,3.1-4.2,5.7-8,5.7c-3.4,0-6.1-1.9-6.1-5.8
			c0-6,6.2-7.9,14.4-7.9L76.8,415.4L76.8,415.4z"/>
		<path d="M-109.3,432.2c-2.7,1.2-7.9,2.3-13.8,2.3c-16,0-26.3-9.9-26.3-25.5c0-14.5,9.9-26.4,28.3-26.4c4.1,0,8.5,0.7,11.8,1.9
			l-2.4,11.5c-1.8-0.8-4.6-1.5-8.7-1.5c-8.1,0-13.4,5.8-13.3,13.8c0,9.1,6.1,13.8,13.5,13.8c3.7,0,6.5-0.5,8.8-1.6L-109.3,432.2z"/>
		<path d="M-105.2,361.5h15.4v71.9h-15.4C-105.2,433.4-105.2,361.5-105.2,361.5z"/>
		<path d="M-41.5,421.3c0,4.7,0.1,9.3,0.7,12.1h-13.8l-0.9-5h-0.3c-3.2,3.9-8.3,6.1-14.2,6.1c-10,0-16-7.3-16-15.2
			c0-12.9,11.5-19.1,29.1-19v-0.7c0-2.6-1.4-6.4-9.1-6.4c-5,0-10.4,1.8-13.7,3.8l-2.8-10c3.4-1.9,10.3-4.3,19.2-4.3
			c16.5,0,21.8,9.8,21.8,21.4C-41.5,404.1-41.5,421.3-41.5,421.3z M-56.6,409.9c-8.1-0.1-14.4,1.8-14.4,7.9c0,3.9,2.6,5.8,6.1,5.8
			c3.8,0,7-2.6,8-5.7c0.1-0.8,0.3-1.8,0.3-2.6V409.9z"/>
		<path d="M-34.9,400.2c0-7.3-0.1-12.1-0.4-16.3H-22l0.5,9.1h0.4c2.6-7.2,8.7-10.3,13.4-10.3c1.4,0,2.2,0,3.2,0.1v14.6
			c-1.1-0.3-2.4-0.5-4.2-0.5c-5.7,0-9.5,3-10.6,7.9c-0.1,0.9-0.3,2.2-0.3,3.4v25.2h-15.4V400.2L-34.9,400.2z"/>
		<path d="M17.2,370.1c0,4.2-3.2,7.7-8.3,7.7c-4.9,0-8.1-3.4-8-7.7c-0.1-4.5,3.1-7.9,8.1-7.9S17.2,365.7,17.2,370.1z M1.4,433.4
			v-49.6h15.4v49.6L1.4,433.4L1.4,433.4z"/>
		<path d="M28.6,433.4v-38.2h-6.5v-11.4h6.5v-1.9c0-6,1.8-12.6,6.2-16.7c3.8-3.7,9.2-5,13.7-5c3.4,0,6.1,0.4,8.3,0.9l-0.5,11.9
			c-1.4-0.4-3-0.7-5-0.7c-5,0-7.2,3.9-7.2,8.8v2.6h15.4l-5.6,11.4h-9.9v38.2L28.6,433.4L28.6,433.4z"/>
		<path class="st1" d="M62.3,417.8c0,3.9,2.6,5.8,6.1,5.8c3.8,0,7-2.6,8-5.7c0.1-0.8,0.3-1.8,0.3-2.6v-5.4
			C68.7,409.9,62.3,411.8,62.3,417.8z"/>
	</g>
</g>
<text transform="matrix(1 0 0 1 -39 389.7)" class="st2 st3">`</text>
</svg>
