<?xml version="1.0" encoding="utf-8"?>
<!-- Generator: Adobe Illustrator 19.1.0, SVG Export Plug-In . SVG Version: 6.00 Build 0)  -->
<svg version="1.1" xmlns="http://www.w3.org/2000/svg" xmlns:xlink="http://www.w3.org/1999/xlink" x="0px" y="0px"
	 viewBox="0 0 641.4 167.7" style="enable-background:new 0 0 641.4 167.7;" xml:space="preserve">
<style type="text/css">
	.st0{display:none;}
	.st1{display:inline;fill:#414042;}
	.st2{fill:#00AEEF;}
	.st3{fill:#8DC63F;}
	.st4{fill-rule:evenodd;clip-rule:evenodd;fill:#8DC63F;}
	.st5{fill-rule:evenodd;clip-rule:evenodd;fill:#00AEEF;}
</style>
<g id="Layer_2" class="st0">
	<rect x="-73.7" y="-223.5" class="st1" width="792" height="612"/>
</g>
<g id="Layer_1">
	<path class="st2" d="M24.3,102.3c-0.1,0.7-0.7,1.2-1.5,1.2h-11c-0.7,0-1.3-0.4-1.2-1.1l7.2-58.8c0.1-0.7,0.7-1.1,1.4-1.2l11.4-1.4
		c0.8-0.1,1.2,0.4,1.2,1.2L24.3,102.3z"/>
	<path class="st2" d="M81.5,74.5L78,102.3c-0.1,0.7-0.7,1.2-1.4,1.2H66.5c-0.7,0-1.3-0.4-1.2-1.2l3.4-27c0.2-1.4,0.2-2.3,0.2-3.5
		c0-1.3-0.2-2.3-0.8-3c-0.8-1-2.2-1.4-4.1-1.4c-3.6,0-7.6,0.8-8.5,1.1l-4.1,33.8c-0.1,0.7-0.7,1.2-1.5,1.2H39.6
		c-0.7,0-1.3-0.4-1.2-1.2l4.5-36.2c0.4-3.2,2.6-4.1,7.6-5.3c4.3-1,11-1.9,16.2-1.9c6,0,10.4,0.8,12.9,3.3c1.6,1.6,2.5,3.8,2.5,6.9
		C81.9,71,81.7,72.2,81.5,74.5z"/>
	<path class="st2" d="M133.8,102.3c-0.1,0.7-0.7,1.2-1.5,1.2h-10c-0.7,0-1.3-0.4-1.2-1.2l4.1-33.2H110l-4.6,37
		c-1.5,12-9,14.9-18,14.9c-3.2,0-5.5-0.2-6-0.3c-0.7-0.1-1.7-0.2-1.5-1.7l0.7-4.9c0.2-1.3,0.7-1.6,1.9-1.6c0.9,0,1.8-0.1,2.6-0.1
		c4.1,0,6.8-0.7,7.6-6.5l4.6-36.8h-6.5c-0.7,0-1.2-0.4-1.2-1.2l0.8-6.6c0.1-0.7,0.7-1.2,1.5-1.2h6.4l0.3-3.1
		c1.7-13.2,8.3-15.8,20.7-15.8c7,0,11.7,1.4,13.9,2.1c0.7,0.2,0.9,0.6,0.7,1.4l-1.2,5.9c-0.2,0.7-0.5,1.2-1.4,1.1
		c-2.3-0.3-6.1-1.2-11.1-1.2c-6.6,0-8.1,1.1-8.8,7.1l-0.3,2.5h26.3c0.9,0,1.5,0.7,1.4,1.6L133.8,102.3z"/>
	<path class="st2" d="M190.1,74.5l-3.5,27.8c-0.1,0.7-0.7,1.2-1.4,1.2h-10.1c-0.7,0-1.3-0.4-1.2-1.2l3.4-27c0.2-1.4,0.2-2.3,0.2-3.5
		c0-1.3-0.2-2.3-0.8-3c-0.8-1-2.2-1.4-4.1-1.4c-3.6,0-7.6,0.8-8.5,1.1l-4.2,33.8c-0.1,0.7-0.7,1.2-1.5,1.2h-10.1
		c-0.7,0-1.3-0.4-1.2-1.2l4.5-36.2c0.4-3.2,2.6-4.1,7.6-5.3c4.3-1,11-1.9,16.2-1.9c6,0,10.4,0.8,12.9,3.3c1.6,1.6,2.5,3.8,2.5,6.9
		C190.5,71,190.4,72.2,190.1,74.5z"/>
	<path class="st2" d="M212.1,102.3c-0.1,0.7-0.7,1.2-1.5,1.2h-10.1c-0.7,0-1.2-0.4-1.2-1.2l4.9-40.1c0.1-0.7,0.7-1.2,1.6-1.2h10
		c0.7,0,1.2,0.4,1.2,1.2L212.1,102.3z M218.1,52.8c-0.2,1.6-1,2.2-2.6,2.2h-8c-1.4,0-2.2-0.5-2.1-2.2l1.2-9.5c0.2-1.5,1-2.2,2.6-2.2
		h8.1c1.3,0,2.1,0.5,2.1,1.7c0,0.1,0,0.3-0.1,0.9L218.1,52.8z"/>
	<path class="st2" d="M254.5,67.8c-0.1,0.7-0.7,1.2-1.4,1.2h-11l-2.2,17.5c-0.2,1.1-0.4,3.2-0.4,4.6c0,1.3,0.2,2.4,1.2,3.1
		c0.7,0.5,1.9,0.8,3.7,0.8c2.5,0,4.6-0.4,5.9-0.7c0.9-0.2,1.2,0.4,1.2,0.9l0.4,5.4c0.1,1.1-0.3,1.6-1.3,1.9
		c-1.2,0.4-5.1,1.5-10.6,1.5c-4.6,0-8-0.7-10.2-2.6c-2.2-1.8-3.2-4.5-3.2-8.4c0-2.1,0.3-4.4,0.6-6.1l4.6-38.2c0.2-1.2,0.7-1.7,1.8-2
		l9.6-1.7c1.2-0.2,1.8,0.3,1.7,1.4L243.1,60h11c0.7,0,1.2,0.4,1.2,1.2L254.5,67.8z"/>
	<path class="st2" d="M273.6,87.5h-1v1.3c0,2.8,1.1,4.7,3.4,5.9c2,0.9,4.6,1.3,8,1.3c4.8,0,9.5-1.4,11.7-2c0.7-0.2,1.4,0.4,1.5,1.2
		l0.6,4.8c0.1,1-0.5,1.5-1.1,1.7c-5.4,2-11.1,2.7-16.8,2.7c-14.3,0-19.7-6.3-19.7-17.9c0-9.1,3-17.4,6.1-21.3
		c3.9-4.8,10.5-6.5,17.5-6.5c10.9,0,18.5,2.8,18.5,14.1C302.4,86.7,290.9,87.3,273.6,87.5z M283.1,67.3c-7.6,0-9.4,6.6-9.7,13.2
		c9.5-0.5,16.9,0.2,16.9-6.7C290.3,69.2,287.5,67.3,283.1,67.3z"/>
	<path class="st3" d="M369,51c-0.1,0.7-0.7,1.3-1.5,1.3h-28.3L337.3,67h27.1c0.7,0,1.2,0.4,1.2,1.2l-0.9,7.6
		c-0.1,0.7-0.7,1.2-1.5,1.2h-27.1l-2,16.4h28.3c0.7,0,1.2,0.3,1.2,1.2l-0.9,7.5c-0.1,0.7-0.7,1.2-1.5,1.2h-40.6
		c-0.7,0-1.3-0.4-1.2-1.3l7.2-58.7c0.1-0.7,0.8-1.3,1.6-1.3h40.6c0.7,0,1.2,0.4,1.2,1.2L369,51z"/>
	<path class="st3" d="M417.6,74.5l-3.5,27.8c-0.1,0.7-0.7,1.2-1.4,1.2h-10.1c-0.7,0-1.3-0.4-1.2-1.2l3.4-27c0.2-1.4,0.2-2.3,0.2-3.5
		c0-1.3-0.2-2.3-0.8-3c-0.8-1-2.2-1.4-4.1-1.4c-3.6,0-7.6,0.8-8.5,1.1l-4.1,33.8c-0.1,0.7-0.7,1.2-1.5,1.2h-10.1
		c-0.7,0-1.3-0.4-1.2-1.2l4.5-36.2c0.4-3.2,2.6-4.1,7.6-5.3c4.3-1,11-1.9,16.2-1.9c6,0,10.4,0.8,12.9,3.3c1.6,1.6,2.5,3.8,2.5,6.9
		C418,71,417.8,72.2,417.6,74.5z"/>
	<path class="st3" d="M439.3,87.5h-1v1.3c0,2.8,1.1,4.7,3.4,5.9c2,0.9,4.6,1.3,8,1.3c4.8,0,9.5-1.4,11.7-2c0.7-0.2,1.4,0.4,1.5,1.2
		l0.6,4.8c0.1,1-0.5,1.5-1.1,1.7c-5.4,2-11.1,2.7-16.8,2.7c-14.3,0-19.7-6.3-19.7-17.9c0-9.1,3-17.4,6.1-21.3
		c3.9-4.8,10.5-6.5,17.5-6.5c10.9,0,18.5,2.8,18.5,14.1C468.1,86.7,456.6,87.3,439.3,87.5z M448.8,67.3c-7.6,0-9.4,6.6-9.7,13.2
		c9.5-0.5,16.9,0.2,16.9-6.7C456,69.2,453.2,67.3,448.8,67.3z"/>
	<path class="st3" d="M503.7,66.8c-0.1,0.9-0.2,1.7-1.7,1.7c-4.8,0-9.1,0.6-10.7,0.9l-4,32.9c-0.1,0.7-0.7,1.2-1.5,1.2h-10.1
		c-0.6,0-1.3-0.4-1.2-1.2L479,66c0.3-2.4,1.7-3.3,4.3-4.3c5.1-1.7,12.6-2.6,18.3-2.7h0.8c1.2,0,2.2,0.2,2,1.7L503.7,66.8z"/>
	<path class="st3" d="M555.3,66.1c0,0.4-0.2,0.7-0.7,1.1c-1.9,1.2-4.1,1.7-6.1,1.7c-1.4,0-1.6-0.2-3.4-0.5c1.1,1,2.6,3.2,2.6,6.6
		c0,3.5-1.6,7.1-4.1,9.5c-3.7,3.5-9.3,4.8-15.7,4.8h-5c-1.8,0-2.9,0.6-3.6,1.5c-0.5,0.7-0.7,1.5-0.7,2.4c0,1.1,0.3,1.7,1.2,2.2
		c0.9,0.5,2.5,0.6,4.6,0.6h7.9c4.3,0,8.8,0.6,11.5,3.1c1.7,1.5,2.6,3.7,2.6,6.9c0,3.9-1.5,7.7-4.3,10.5c-4.2,4.1-11,5.7-19.2,5.7
		c-7.4,0-12.9-0.7-16.3-2.4c-2.7-1.5-4.1-3.7-4.1-6.8c0-1.8,0.5-3.8,1.5-5.5c2.2-3.7,6.4-4,8.8-4.6l0.2-1.3
		c-1.9-0.4-3.7-0.7-5.1-1.5c-1.2-0.7-1.8-2-1.8-4.3c0-1.9,0.4-3.7,1.5-5.1c1.8-2.3,5.1-2.9,8.8-3.5c-1.5-0.4-3.9-1.1-5.8-3.2
		c-1.4-1.5-2.4-3.7-2.4-7.2c0-4.3,1.5-9.1,4.5-12.3c3.7-4.1,9.7-5.6,17.3-5.6c5.3,0,7.1,0.7,10.5,1.6c0.9,0.2,1.9,0.3,3.2,0.3
		c1.3,0,2.8-0.2,4.1-0.5c1.6-0.4,3.2-1.2,4.5-1.8c0.5-0.2,0.7-0.2,0.8-0.2c0.4,0,0.7,0.2,0.7,0.8l1.2,6.6
		C555.3,65.8,555.3,66,555.3,66.1z M533.2,106.3c-1.1-1.1-3.2-1.2-5.6-1.2H522c-2.1,0-4.6,0.3-5.9,2.2c-0.7,1-0.9,2.2-0.9,3.3
		c0,1.7,0.8,2.7,2.2,3.4c1.5,0.7,3.8,0.9,6.8,0.9c3.7,0,6.7-0.6,8.4-2.3c0.9-1.1,1.4-2.5,1.4-3.9C534,107.7,533.8,106.8,533.2,106.3
		z M534.6,67.3c-1.1-1-2.7-1.5-5.1-1.5c-3.9,0-6.1,1.3-7.3,3.9c-0.9,1.8-1.3,4.6-1.3,6.7c0,1.9,0.5,3.3,1.5,4.3
		c1.1,1,2.7,1.6,5.1,1.6c3.8,0,6.1-1.3,7.3-3.7c0.9-1.9,1.3-4.6,1.3-6.7C536.1,69.8,535.7,68.3,534.6,67.3z"/>
	<path class="st3" d="M584.2,108.3c-3.2,7.7-6.7,12.7-17.7,12.7c-3.5,0-7-0.2-8.4-0.6c-0.7-0.2-1.2-0.6-1.1-1.6l0.7-5.1
		c0.2-1.2,0.5-1.7,1.8-1.7c1.2,0,3.1,0.2,4.8,0.2c4.3,0,6.6-1.3,7.9-4.8l1.5-3.8h-6.2c-0.8,0-1.2-0.6-1.3-1.3L559.7,62
		c-0.2-1.2,0.6-2.1,1.7-2.1h9.6c1,0,1.6,0.2,1.7,1.4l3.7,34.2h2.2l11.2-34.1c0.4-1.2,1.1-1.5,2.2-1.5h9.7c0.9,0,1.4,0.6,1.4,1.3
		c0,0.2,0,0.4-0.2,0.8L584.2,108.3z"/>
	<path class="st4" d="M291.1,113.5c0,0-63,25.1-101.3,32.2c-31,5.8-62.9,8.1-96.1,4.3c-15.8-1.8-25.7-6.2-30.3-12.8
		c-3.9-5.5-1.9-11.2,0.1-16.9c1-3,3.9-8.9,3.9-8.9l-2,0.6c0,0-11.8,15.1-11.8,23c0.1,15.6,19.3,24,54.8,24.2
		c25.7,0.1,50.1-2.4,73.4-7c43.1-8.4,108.4-36.6,108.4-36.6L291.1,113.5z"/>
	<path class="st5" d="M392.6,52.7c0,0,63-25.1,101.3-32.2c31-5.8,62.9-8.1,96.1-4.3c15.8,1.8,25.7,6.2,30.3,12.8
		c3.9,5.5,1.9,11.2-0.1,16.9c-1,3-3.9,8.9-3.9,8.9l2-0.6c0,0,11.8-15.1,11.8-23C630,15.6,610.8,7.2,575.3,7
		c-25.7-0.1-50.1,2.4-73.4,7c-43.1,8.4-108.4,36.6-108.4,36.6L392.6,52.7z"/>
	<g>
		<path class="st3" d="M597.5,117.1c-0.7,1.4-2.1,2-4.6,2c-1.7,0-2.8-0.3-3.5-1c-0.5-0.5-0.7-1.3-0.7-2.2c0-1.1,0.2-2.5,0.7-3.4
			c0.7-1.4,2.1-2,4.6-2c1.7,0,2.8,0.3,3.5,1c0.5,0.5,0.7,1.3,0.7,2.2C598.2,114.7,598,116.1,597.5,117.1z M596.7,112.1
			c-0.5-0.5-1.3-0.7-2.8-0.7c-1.5,0-2.4,0.3-3,0.8c-0.5,0.4-0.7,1-0.9,1.7c-0.1,0.6-0.2,1.2-0.2,1.8c0,0.8,0.1,1.3,0.5,1.7
			c0.5,0.5,1.3,0.7,2.8,0.7c1.5,0,2.4-0.2,3-0.8c0.5-0.4,0.7-1,0.9-1.7c0.1-0.6,0.2-1.2,0.2-1.8
			C597.2,113.1,597.1,112.5,596.7,112.1z M595.5,114.3c-0.2,0.3-0.5,0.5-1.1,0.5l0,0.2c0.3,0,0.5,0.1,0.7,0.2
			c0.2,0.1,0.3,0.4,0.3,0.8c0,0.1,0,0.2,0,0.3l0,0.8c0,0.1-0.1,0.1-0.1,0.1h-0.9c-0.1,0-0.1,0-0.1-0.1l0.1-0.9c0-0.1,0-0.2,0-0.3
			c0-0.2-0.1-0.3-0.1-0.3c-0.2-0.1-0.4-0.2-0.8-0.2l-0.8,0l-0.2,1.7c0,0.1-0.1,0.1-0.1,0.1h-0.9c-0.1,0-0.1-0.1-0.1-0.1l0.6-4.6
			c0-0.1,0.1-0.1,0.2-0.1h2.2c0.5,0,1,0.1,1.2,0.3c0.2,0.2,0.3,0.4,0.3,0.8C595.7,113.7,595.7,114.1,595.5,114.3z M594.4,113.3
			c-0.1-0.1-0.3-0.1-0.6-0.1h-0.9l-0.2,1.4l0.9,0c0.4,0,0.7-0.1,0.8-0.3c0.1-0.1,0.1-0.4,0.1-0.5
			C594.5,113.5,594.5,113.4,594.4,113.3z"/>
	</g>
</g>
</svg>
