<?xml version="1.0" encoding="utf-8"?>
<!-- Generator: Adobe Illustrator 19.1.0, SVG Export Plug-In . SVG Version: 6.00 Build 0)  -->
<svg version="1.1" id="Layer_1" xmlns="http://www.w3.org/2000/svg" xmlns:xlink="http://www.w3.org/1999/xlink" x="0px" y="0px"
	 viewBox="187.643 454 946.5 441.866" enable-background="new 187.643 454 946.5 441.866" xml:space="preserve">
<g>
	<path fill="none" d="M777.025,624.197h-2.887c-19.383,0-35.145,13.004-35.145,28.983v18.269h72.886v-18.269
		C811.88,637.201,796.242,624.197,777.025,624.197z"/>
	<path fill="none" d="M466.355,729.401h3.181c19.218,0,34.85-13.002,34.85-28.981v-47.241c0-15.978-15.632-28.983-34.85-28.983
		h-3.181c-19.22,0-34.856,13.004-34.856,28.983v47.206l0.002,0.035c0,0.052,0.003,0.102,0.003,0.154
		C431.604,716.482,447.198,729.401,466.355,729.401z"/>
	<path fill="none" d="M237.335,866.187h847.112V483.675H237.335V866.187z M969.341,614.712h13.178v-46.51
		c0-2.843,2.346-4.986,5.461-4.986c3.113,0,5.465,2.142,5.465,4.986v46.51h23.292c3.551,0,5.465,2.569,5.465,4.987
		c0,2.416-1.915,4.987-5.465,4.987h-23.292v83.768c0,11.749,10.993,20.946,25.025,20.946c3.547,0,5.465,2.569,5.465,4.984
		c0.002,2.416-1.918,4.985-5.465,4.985c-20.159,0-35.952-13.573-35.952-30.916v-83.768h-13.178c-3.695,0-5.683-2.57-5.683-4.987
		C963.659,617.281,965.646,614.712,969.341,614.712z M848.494,619.334c0-2.819,2.234-4.864,5.322-4.864c3.349,0,5.6,1.955,5.6,4.864
		v7.865c7.782-7.781,21.296-12.97,35.147-12.97h2.892c25.407,0,46.072,17.582,46.072,39.196v80.839
		c0.001,3.155-2.915,5.106-5.611,5.106c-2.988,0-5.321-2.243-5.321-5.108v-80.839c0-16.113-15.761-29.227-35.14-29.227h-2.892
		c-19.048,0-35.147,12.272-35.147,26.795v83.271c0,2.96-2.355,5.108-5.6,5.108c-2.989,0-5.322-2.243-5.322-5.108V619.334z
		 M728.065,653.179c0-21.476,20.668-38.95,46.072-38.95h2.306c26.429,0,46.363,16.742,46.363,38.95v23.135
		c0,2.816-2.519,5.105-5.606,5.105h-78.207v19.002c0,15.98,15.633,28.982,34.855,28.982h3.177c14.754,0,28.028-8.008,33.02-19.933
		c0.386-1.793,2.334-3.196,4.835-3.196c3.309,0,5.902,2.138,5.902,4.862c0,0.545-0.169,1-0.286,1.317l-0.183,0.563
		c-6.337,15.763-23.735,26.355-43.289,26.355h-3.177c-25.251,0-45.783-17.468-45.783-38.95V653.179z M672.921,568.441
		c0-2.861,2.337-5.105,5.315-5.105c3.36,0,5.612,2.053,5.612,5.105v140.013c0,11.549,11.225,20.946,25.03,20.946
		c3.251,0,5.607,2.151,5.607,5.111c-0.002,2.353-1.966,4.859-5.607,4.859c-20.165,0-35.957-13.573-35.957-30.916V568.441z
		 M546.783,757.646c2.359,0,4.286,1.303,5.151,3.486c4.112,11.268,20.049,19.403,37.913,19.403h3.177
		c19.223,0,34.859-13.001,34.859-28.981v-24.963c-7.824,7.664-21.279,12.779-34.917,12.779h-3.178
		c-25.245,0-45.785-17.583-45.785-39.195v-80.841c0-2.861,2.336-5.105,5.321-5.105c3.25,0,5.603,2.145,5.603,5.105v80.841
		c0,16.116,15.64,29.225,34.86,29.225h3.177c17.713,0,33.061-10.537,34.941-23.996l-0.024-3.278v-82.792
		c0-2.863,2.335-5.106,5.317-5.106c2.698,0,5.606,1.949,5.606,5.106v132.219c0.003,21.483-20.533,38.956-45.78,38.956h-3.178
		c-19.218,0-41.789-8.851-48.087-25.781c-0.584-0.822-0.584-1.697-0.584-2.214C541.174,759.607,544.076,757.646,546.783,757.646z
		 M420.572,653.179c0-21.476,20.539-38.95,45.784-38.95h3.181c25.241,0,45.779,17.471,45.779,38.95v47.241
		c0,21.482-20.538,38.95-45.779,38.95h-3.181c-25.244,0-45.784-17.468-45.784-38.95V653.179z M297.55,709.748
		c0.94-1.721,3.006-2.828,5.259-2.828c2.139,0,3.991,1.046,4.953,2.798c6.332,11.603,25.587,19.683,38.911,19.683h2.6
		c18.246,0,37.749-6.591,37.749-25.086c0-19.166-19.986-23.999-40.448-27.308c-11.013-1.789-44.526-7.238-44.526-29.669v-2.19
		c0-21.245,22.981-30.918,44.337-30.918h1.733c19.362,0,32.195,7.772,40.164,13.617c1.855,1.42,2.569,3.504,1.903,5.466
		c-1.105,3.272-5.791,4.665-8.863,2.318c-6.691-4.888-17.473-11.435-33.202-11.435h-1.734c-12.515,0-33.701,4.414-33.701,20.95
		v2.189c0,12.067,22.286,17.871,35.575,20.254c22.128,3.823,49.687,8.575,49.687,36.725c-0.002,25.876-26.223,35.056-48.675,35.056
		h-2.6c-17.111,0-40.699-9.615-48.963-25.151C296.849,712.891,296.754,711.202,297.55,709.748z"/>
	<path fill="#231F20" d="M346.672,739.37h2.6c22.452,0,48.673-9.18,48.675-35.056c0-28.149-27.559-32.902-49.687-36.725
		c-13.289-2.383-35.575-8.187-35.575-20.254v-2.189c0-16.536,21.186-20.95,33.701-20.95h1.734c15.729,0,26.512,6.546,33.202,11.435
		c3.073,2.347,7.758,0.954,8.863-2.318c0.666-1.963-0.048-4.047-1.903-5.466c-7.969-5.845-20.803-13.617-40.164-13.617h-1.733
		c-21.356,0-44.337,9.672-44.337,30.918v2.19c0,22.43,33.513,27.879,44.526,29.669c20.461,3.309,40.448,8.143,40.448,27.308
		c0,18.495-19.503,25.086-37.749,25.086h-2.6c-13.324,0-32.578-8.08-38.911-19.683c-0.962-1.752-2.814-2.798-4.953-2.798
		c-2.253,0-4.319,1.108-5.259,2.828c-0.796,1.454-0.7,3.142,0.159,4.471C305.973,729.755,329.561,739.37,346.672,739.37z"/>
	<path fill="#231F20" d="M466.355,739.37h3.181c25.241,0,45.779-17.468,45.779-38.95v-47.241c0-21.479-20.538-38.95-45.779-38.95
		h-3.181c-25.245,0-45.784,17.474-45.784,38.95v47.241C420.572,721.902,441.111,739.37,466.355,739.37z M431.501,700.42
		l-0.002-0.035v-47.206c0-15.978,15.637-28.983,34.856-28.983h3.181c19.218,0,34.85,13.004,34.85,28.983v47.241
		c0,15.979-15.632,28.981-34.85,28.981h-3.181c-19.158,0-34.751-12.919-34.852-28.827
		C431.504,700.523,431.501,700.472,431.501,700.42z"/>
	<path fill="#231F20" d="M589.845,790.508h3.178c25.247,0,45.783-17.474,45.78-38.956V619.333c0-3.157-2.908-5.106-5.606-5.106
		c-2.982,0-5.317,2.243-5.317,5.106v82.792l0.024,3.278c-1.88,13.459-17.228,23.996-34.941,23.996h-3.177
		c-19.22,0-34.86-13.109-34.86-29.225v-80.841c0-2.96-2.353-5.105-5.603-5.105c-2.985,0-5.321,2.244-5.321,5.105v80.841
		c0,21.612,20.539,39.195,45.785,39.195h3.178c13.638,0,27.094-5.115,34.917-12.779v24.963c0,15.979-15.636,28.981-34.859,28.981
		h-3.177c-17.864,0-33.801-8.135-37.913-19.403c-0.865-2.183-2.792-3.486-5.151-3.486c-2.707,0-5.609,1.962-5.609,4.867
		c0,0.517,0,1.393,0.584,2.214C548.056,781.656,570.627,790.508,589.845,790.508z"/>
	<path fill="#231F20" d="M708.877,739.37c3.641,0,5.606-2.506,5.607-4.859c0-2.961-2.356-5.111-5.607-5.111
		c-13.805,0-25.03-9.397-25.03-20.946V568.441c0-3.052-2.252-5.105-5.612-5.105c-2.979,0-5.315,2.244-5.315,5.105v140.013
		C672.921,725.797,688.712,739.37,708.877,739.37z"/>
	<path fill="#231F20" d="M773.848,739.37h3.177c19.553,0,36.952-10.591,43.289-26.355l0.183-0.563
		c0.117-0.317,0.286-0.772,0.286-1.317c0-2.724-2.593-4.862-5.902-4.862c-2.501,0-4.45,1.403-4.835,3.196
		c-4.993,11.925-18.267,19.933-33.02,19.933h-3.177c-19.221,0-34.855-13.002-34.855-28.982v-19.002h78.207
		c3.086,0,5.606-2.289,5.606-5.105v-23.135c0-22.208-19.933-38.95-46.363-38.95h-2.306c-25.404,0-46.072,17.474-46.072,38.95v47.241
		C728.065,721.902,748.598,739.37,773.848,739.37z M738.994,671.448v-18.269c0-15.978,15.762-28.983,35.145-28.983h2.887
		c19.217,0,34.854,13.004,34.854,28.983v18.269H738.994z"/>
	<path fill="#231F20" d="M853.816,739.37c3.246,0,5.6-2.148,5.6-5.108v-83.271c0-14.523,16.099-26.795,35.147-26.795h2.892
		c19.38,0,35.14,13.114,35.14,29.227v80.839c0,2.864,2.333,5.108,5.321,5.108c2.696,0,5.612-1.951,5.611-5.106v-80.839
		c0-21.614-20.665-39.196-46.072-39.196h-2.892c-13.85,0-27.364,5.189-35.147,12.97v-7.865c0-2.909-2.251-4.864-5.6-4.864
		c-3.087,0-5.322,2.045-5.322,4.864v114.928C848.494,737.127,850.827,739.37,853.816,739.37z"/>
	<path fill="#231F20" d="M969.341,624.687h13.178v83.768c0,17.342,15.793,30.916,35.952,30.916c3.547,0,5.466-2.57,5.465-4.985
		c0-2.416-1.919-4.984-5.465-4.984c-14.032,0-25.025-9.197-25.025-20.946v-83.768h23.292c3.55,0,5.465-2.571,5.465-4.987
		c0-2.419-1.914-4.987-5.465-4.987h-23.292v-46.51c0-2.845-2.353-4.986-5.465-4.986c-3.115,0-5.461,2.143-5.461,4.986v46.51h-13.178
		c-3.695,0-5.683,2.569-5.683,4.987C963.659,622.116,965.646,624.687,969.341,624.687z"/>
	<path fill="#231F20" d="M225.193,471.53v406.806h871.399V471.53H225.193z M1084.447,866.187H237.335V483.675h847.112V866.187z"/>
</g>
</svg>
