<?xml version="1.0" encoding="utf-8"?>
<!-- Generator: Adobe Illustrator 19.1.0, SVG Export Plug-In . SVG Version: 6.00 Build 0)  -->
<svg version="1.1" id="Layer_1" xmlns="http://www.w3.org/2000/svg" xmlns:xlink="http://www.w3.org/1999/xlink" x="0px" y="0px"
	 viewBox="-325 91.3 2281.8 348.7" style="enable-background:new -325 91.3 2281.8 348.7;" xml:space="preserve">
<style type="text/css">
	.st0{fill:#ED1D24;}
</style>
<path class="st0" d="M1051.4,196.9l0.7-1.1L1051.4,196.9c-12.1-8.3-29.6-12.1-46.6-12.1c-38.7,0-66.4,19.2-84.6,46.1
	c-18.1,27-26.6,61.7-26.6,92.7c0,22.4,3.4,43.2,17,62c6.7,9.2,23,31.3,75.6,31.3c36.5,0,53.8-9.5,63.2-15l1.6-2.1
	c1.8-8,8-44.4,10.5-53.5l-1.9-1.4c-18.5,14.6-38.6,25.3-61.5,25.3c-15.3,0-27-3.6-34.9-10.7c-7.8-7-11.7-17.3-11.7-30.1
	c0-4.7,0.4-9,0.7-13.7l0.1-1.1l1.1,0c35.8-0.9,54-1.4,83.9-1.4c9.8,0,20.8,0,34.1,0.2l2.3-1.6c3-13.9,6.2-29.8,6.2-49.3
	C1080,245.1,1078.2,214.3,1051.4,196.9 M1027.7,272.9l-0.2,1l-35.1,0.4l-34.7,0.5l0.3-1.2l0.2-0.5c0.7-2.4,1.5-5.1,2.3-7.8
	c2.4-7.6,5.8-15.9,11.8-23.6c1.1-1.3,2.2-2.6,3.4-3.9c10.7-11.7,20.9-13.6,27.5-13.6c9.3,0,16.1,3.7,20.4,9.2c0.7,1,1.4,1.9,2,3
	c2.2,3.7,3.5,7.9,4,12.2c0.2,1.6,0.3,3.2,0.3,4.8C1030,260.1,1028.8,266.5,1027.7,272.9 M891.6,233.4l-2.4,2.4l-34.5-0.9l-16,75.3
	c-2.2,9.4-7.1,33-7.1,40.6c0,7.1,2.6,11.9,6.4,14.8c3.7,2.9,8.3,3.9,12.4,3.9c9.6,0,12.9-2.7,19.3-5.1l1.1,1.1l-8.5,43.4l-2.9,2.8
	c-11.8,2.5-20.6,4.6-33,4.6c-32.1-0.2-55.3-11-55.4-48.4c0-17.5,7.1-49.4,12.3-73.1l12.7-59.7l-27.1,0.9l-1.6-2.4l7.9-42.1l2.5-1.4
	h27.5l11-55.4l2.1-2.4c27.6-7.1,35.5-10.4,60.6-18.7l1.3,1.5l-8.3,35.7l-8.6,40.2l35.4-1.1l0.9,1.8L891.6,233.4z M1317.2,162.4
	l-1.9,2.1l-91.1-0.2l-14.8,76l79.7-2.4l1.2,1.9c-6.6,21.8-8.1,28-12.5,47.1l-2,1.9l-75.8-0.2l-10,52.7l-12.6,68.5l-1.7,1.6
	l-65.3,1.7l-0.8-1.7l11.3-58.3l17.3-82.3c13.1-63.9,16.8-84.4,29.1-154l2-1.9h95.4l60.6-1.6l1.2,1.6L1317.2,162.4z M1445.9,199.4
	c-12.7-8.9-32.9-13.5-60.6-13.5c-13.7,0-27.5,1.3-41.4,3.9c-12.4,2.4-20.1,4.4-26.6,6.2l-1.8,1.8l-9,46.1l2.9,1.8
	c5.8-2.7,14.3-5.9,25.4-9.9c11.4-4,22-6,31.5-6c13.9,0,24.5,1.9,31.7,5.8c7.4,4,12.7,12.8,12.7,22.4c0,2.4-0.2,4.5-0.5,6.4
	c-0.4,1.8-0.6,3.1-0.7,3.8l-0.2,1c0,0-4.5,0.3-9.3,0.7c-3.2,0.3-7.2,0.8-11.8,1.3c-7.6,0.8-16.3,1.9-24,3.2
	c-18.3,3-69.8,11.1-85.3,45.6c-16.2,28.3-13.4,65.8,2.5,84c5.6,6.5,14.2,12.5,25.7,14.9l0,0c0.5,0.2,2.3,0.4,2.7,0.5
	c44.5,6.9,76.5-31.9,76.5-31.9l-4.8,23.9l2,1.7l50-1.7l2.1-1.8l29.5-148c0.6-3.1,1.1-6.8,1.5-11c0.3-4.2,0.5-7.7,0.5-10.2
	C1467.1,221.4,1458.5,208.3,1445.9,199.4 M1394.4,347.3c0,0-12,18.8-29.2,25.5c-17.3,6.7-29.8,1.4-34.7-5.3
	c-3.9-5.2-12.1-21.7,3.4-40.3c15.8-18.8,68-20,68-20L1394.4,347.3z M1637.3,182.8l-12.3,63.6l-2.6,2.6c-3.5-0.6-8-1.1-13.2-1.1
	c-16.5,0-40,5.3-58.4,29.7l-0.2,0.2l-25.3,132l-1.8,1.6l-55,1.7l-1.4-1.4l43.2-221.7l2.3-2.3l54.4-5.3l2.1,2.3l-6.3,32.1l2.7-2.4
	c11.4-10.3,21.5-17.4,32.7-23.9c11.2-6.4,22.4-9.6,33.6-9.6c1.1,0,2.2,0,3.4,0L1637.3,182.8z M1931.6,238.6c0,13.4-3,27.3-6,40.8
	l-25.5,130.4l-2,1.6l-57.5,2l-1.4-2c0,0,29.5-144,29.5-151.2c0-6.5-3.4-24-21.8-24c-14.4,0-29.3,14.6-29.3,14.6l-31.1,159.1
	l-1.9,1.6l-24.8,0.9l-22.2,0.7l-11,0.4l-0.7-0.9l-0.7-1.1c0,0,4.4-21.9,10-49.1h-0.2c8.6-42.5,19.6-97.7,19.6-102.1
	c0-6.5-3.4-24-21.8-24c-14.4,0-29.3,14.6-29.3,14.6l-31.1,159.1l-2,1.6l-8.9,0.3l-49,1.6l-1.2-1.9l43.1-221.4l2.2-2.2l57.4-5.4
	l2.3,2.3l-6.1,31.2c0,0,27.7-30.4,63-31.1c32.9-0.6,39.8,31.1,39.8,31.1s32.8-31.8,67.8-31.1
	C1898.7,184.9,1931.5,192.7,1931.6,238.6 M730.2,199.4c-12.6-8.9-32.8-13.5-60.6-13.5c-13.7,0-27.5,1.3-41.4,3.9
	c-12.4,2.4-20.1,4.4-26.7,6.2l-1.8,1.8l-9,46.1l2.9,1.8c5.8-2.7,14.3-5.9,25.4-9.9c11.5-4,22-6,31.5-6c13.9,0,24.4,1.9,31.7,5.8
	c7.4,4,12.7,12.8,12.7,22.4c0,2.4-0.2,4.5-0.5,6.4c-0.4,1.8-0.6,3.1-0.7,3.8l-0.1,1c0,0-4.5,0.3-9.3,0.7c-3.1,0.3-7.2,0.8-11.8,1.3
	c-7.6,0.8-16.4,1.9-24,3.2c-18.3,3-69.8,11.1-85.3,45.6c-16.2,28.3-13.4,65.8,2.5,84c5.6,6.5,14.2,12.5,25.7,14.9l0,0
	c0.5,0.2,2.3,0.4,2.7,0.5c44.6,6.9,76.5-31.9,76.5-31.9l-4.8,23.9l1.9,1.7l50.1-1.7l2.1-1.8l29.4-148c0.6-3.1,1.1-6.8,1.6-11
	c0.3-4.2,0.5-7.7,0.5-10.2C751.4,221.4,742.9,208.3,730.2,199.4 M678.7,347.3c0,0-11.9,18.8-29.2,25.5c-17.3,6.7-29.7,1.4-34.7-5.3
	c-3.9-5.2-12.1-21.7,3.5-40.3c15.7-18.8,67.9-20,67.9-20L678.7,347.3z M558.1,233.4l-2.4,2.4l-34.5-0.9l-16,75.3
	c-2.2,9.4-7.1,33-7.1,40.6c0,7.1,2.6,11.9,6.4,14.8c3.7,2.9,8.3,3.9,12.5,3.9c9.6,0,13-2.7,19.3-5.1l1.1,1.1l-8.5,43.4l-2.9,2.8
	c-11.8,2.5-20.6,4.6-33.1,4.6c-32-0.2-55.3-11-55.4-48.4c0-17.5,7.1-49.4,12.3-73.1l12.7-59.7l-27.1,0.9l-1.6-2.4l8-42.1l2.5-1.4
	h27.5l11-55.4l2.2-2.4c27.5-7.1,35.5-10.4,60.7-18.7l1.3,1.5l-8.3,35.7l-8.6,40.2l35.3-1.1l1,1.8L558.1,233.4z M428.4,131.1
	l-10.5,54l-2.3,0.7c-4.2-5.9-6.7-8.2-12.5-12.6c-12.9-9.9-28.2-15.5-43.8-15.5c-12.2,0-22.4,3.8-29.5,10.2
	c-7.1,6.3-11.2,15.4-11.2,25.4c0,19.1,13.1,28.3,36.3,42.2l9,5.1c19.4,12.7,49.6,32.2,49.6,76.6c-0.1,50.4-32.3,100.9-109.7,101
	c-19,0-37.5-3.4-55.4-10.1c-12.1-4.6-17.9-8.6-25.2-14l-0.6-3.5l10.3-52.7l2.3-0.8c4.7,6,10.5,11,19.2,16.7
	c18.6,12.4,36.5,13.8,44.2,13.8c27.3,0,48.8-15.6,48.8-39.8c0-21.7-17.2-32.6-35.1-43.1l-12.4-7.6c-19.5-12.7-46.5-30.1-46.6-73.6
	c0-16.7,4.8-40.7,19.6-60.4c19.5-25.8,50.2-35.1,81.1-35.1c39.8,0,62.6,14.1,73.2,20.9L428.4,131.1z M-131.2,226.2
	c15.7,9.7,37.7,15.8,62.5,15.8c24.8,0,47-6.2,62.9-15.8c16-9.7,25.4-22.7,25.4-36.5c0-13.8-9.4-26.7-25.3-36.3
	c-15.9-9.6-38-15.6-62.9-15.6c-24.8,0-46.9,6.1-62.6,15.6c-15.8,9.6-25,22.5-25.1,36.3C-156.2,203.5-146.9,216.6-131.2,226.2
	 M-127.3,300.9c-15.9-9.6-38.1-15.6-62.8-15.6c-24.8,0-46.9,6-62.6,15.6c-15.8,9.6-25,22.4-25.1,36.2c0,13.9,9.2,26.9,25,36.6
	c15.7,9.6,37.7,15.8,62.5,15.8c24.8-0.1,47.1-6.2,63-15.9c15.9-9.7,25.3-22.7,25.4-36.5C-102,323.4-111.4,310.5-127.3,300.9
	 M115.3,300.9c-15.9-9.6-38.1-15.6-62.9-15.6c-24.8,0-46.9,6-62.6,15.6c-15.8,9.6-25,22.4-25,36.3c0,13.8,9.2,26.8,25,36.5
	c15.7,9.6,37.7,15.8,62.5,15.8c24.8-0.1,47.1-6.2,63-15.9c15.9-9.7,25.3-22.7,25.4-36.5C140.6,323.4,131.2,310.5,115.3,300.9
	 M52.2,249.1c-11.2,0-22,1.1-32.3,3c22.5-16,36.3-38.1,36.3-62.5c0-49-55.7-88-124.8-88c-69.1,0-124.2,39-124.2,88
	c0,24.4,13.6,46.5,35.8,62.5c-10.5-2-21.5-3-32.8-3c-69.1,0-124.2,39-124.2,88c0,48.9,54.8,88.7,123.9,88.7
	c58.8,0,108.2-28.8,121.6-67.5c13.1,38.8,61.6,67.5,120.4,67.5c69.1,0,125.1-39.7,125.1-88.7C177,288.1,121.3,249.1,52.2,249.1
	 M-170.3,189.6c0.1-22.1,16.8-37,26.7-43.9c19.7-14,46.3-21.5,75-21.5c28.8,0,55.5,7.6,75.3,21.5c9.9,7,26.9,21.9,27,43.9
	c-0.3,36.8-47.6,66.1-102.6,66.2c-28.6,0-55.1-7.6-74.7-21.7C-160.6,221.8-170.3,206-170.3,189.6 M-190.1,403.2
	c-28.6,0-55.1-7.7-74.8-21.8c-17-12.2-26.6-27.9-26.6-44.4c0.1-22.1,16.8-37,26.6-44c19.7-13.9,46.3-21.5,75-21.5
	c28.8,0,55.5,7.6,75.4,21.6c9.9,7,26.9,21.9,27,43.9C-87.8,373.9-135.1,403.2-190.1,403.2 M-68.5,316c-5.4-15.6-16.7-29.6-32-40.6
	c10.1,1.9,20.6,2.9,31.5,2.9c11.2,0,22-1.1,32.4-3C-51.9,286.3-63.1,300.3-68.5,316 M51.9,403.2c-28.6,0-55.1-7.7-74.7-21.8
	c-17-12.2-26.7-27.9-26.7-44.4c0.1-22.1,16.9-37,26.7-44c19.6-13.9,46.3-21.5,75-21.5c28.8,0,55.5,7.6,75.4,21.6
	c9.9,7,26.8,21.9,26.9,43.9C154.2,373.9,106.9,403.2,51.9,403.2"/>
<g>
	<path class="st0" d="M-125,423.2c0,1.7-1.2,2.9-2.8,2.9c-1.6,0-2.8-1.3-2.8-3c0-1.7,1.2-2.9,2.8-2.9
		C-126.2,420.2-125,421.5-125,423.2 M-130.2,423.1c0,1.4,1.1,2.6,2.4,2.6c1.3,0,2.4-1.1,2.5-2.6c0-0.7-0.2-1.4-0.7-1.8
		c-0.4-0.5-1.1-0.7-1.7-0.8C-129.2,420.5-130.2,421.6-130.2,423.1 M-127.9,421.5c0.4,0,0.5,0,0.7,0.1c0.4,0.1,0.6,0.5,0.6,0.8
		c0,0.4-0.3,0.7-0.7,0.8l0.7,1.6l-0.5,0l-0.6-1.5l0,0l-0.3,0l-0.3,0l-0.1,0l0,1.5l-0.4,0l0-3.3L-127.9,421.5z M-128,423
		c0.4,0,0.6,0,0.7-0.1c0.1-0.1,0.2-0.3,0.2-0.4c0-0.2-0.1-0.4-0.3-0.5c-0.1-0.1-0.3-0.1-0.7-0.1l-0.4,0l0,1.1L-128,423z"/>
</g>
</svg>
